<svg xmlns="http://www.w3.org/2000/svg" viewBox="0 0 23 23"><title>nav-pan-over</title><g id="Layer_2" data-name="Layer 2"><g id="Layer_1-2" data-name="Layer 1"><path d="M22.65,6.92a6.35,6.35,0,0,0-1.82-3.86C19.89,2.11,16.92,1,12,1S4.11,2.11,3.17,3.06A6.35,6.35,0,0,0,1.35,6.92,32.19,32.19,0,0,0,1,12a32.19,32.19,0,0,0,.35,5.08,6.35,6.35,0,0,0,1.82,3.86C4.11,21.89,7.08,23,12,23s7.89-1.11,8.83-2.06a6.35,6.35,0,0,0,1.82-3.86A32.19,32.19,0,0,0,23,12,32.19,32.19,0,0,0,22.65,6.92ZM3.09,12c0-3.86,1.25-6.18,2-6.92s3.06-2,6.92-2,6.18,1.25,6.92,2,2,3.06,2,6.92-1.25,6.18-2,6.92-3.06,2-6.92,2-6.18-1.25-6.92-2S3.09,15.86,3.09,12ZM7,13H9c.36,0,2-.64,2-1s-1.64-1-2-1H7l1-.88A.65.65,0,0,0,8,9.2,3.21,3.21,0,0,0,7,9s-2,1.86-2,3,2,3,2,3,.85.22,1.1,0a.65.65,0,0,0,0-.92ZM17,9.09s-.85-.21-1.1,0a.64.64,0,0,0,0,.91l1.08,1H15c-.36,0-2,.63-2,1s1.64,1,2,1h2l-1,.87a.63.63,0,0,0,0,.9,3.21,3.21,0,0,0,1,.2s2-1.83,2-2.95S17,9.09,17,9.09Zm-3,6.83-1,1.08V15c0-.36-.63-2-1-2s-1,1.64-1,2v2l-.87-1a.63.63,0,0,0-.9,0A3.21,3.21,0,0,0,9,17s1.83,2,2.95,2,3-2,3-2,.21-.85,0-1.1A.64.64,0,0,0,14,15.92ZM10,8.08,11,7V9c0,.36.62,2,1,2s1-1.64,1-2V7l.85,1a.61.61,0,0,0,.89,0,3.21,3.21,0,0,0,.2-1S13.11,5,12,5,9.09,7,9.09,7s-.21.85,0,1.1A.61.61,0,0,0,10,8.08Z" fill="#00aeef"/><circle cx="4" cy="4" r="3" fill="#3b4850"/><path d="M4,2A2,2,0,1,1,2,4,2,2,0,0,1,4,2M4,0A4,4,0,1,0,8,4,4,4,0,0,0,4,0Z" fill="#a0a09f"/></g></g></svg>