<svg xmlns="http://www.w3.org/2000/svg" viewBox="0 0 22 22"><title>nav-wl-filters-abdoment-over-on</title><g id="Layer_2" data-name="Layer 2"><g id="Layer_1-2" data-name="Layer 1"><path d="M21.65,5.92a6.35,6.35,0,0,0-1.82-3.86C18.89,1.11,15.92,0,11,0S3.11,1.11,2.17,2.06A6.35,6.35,0,0,0,.35,5.92,32.19,32.19,0,0,0,0,11a32.19,32.19,0,0,0,.35,5.08,6.35,6.35,0,0,0,1.82,3.86C3.11,20.89,6.08,22,11,22s7.89-1.11,8.83-2.06a6.35,6.35,0,0,0,1.82-3.86A32.19,32.19,0,0,0,22,11,32.19,32.19,0,0,0,21.65,5.92ZM2.09,11c0-3.86,1.25-6.18,2-6.92s3.06-2,6.92-2,6.18,1.25,6.92,2,2,3.06,2,6.92-1.25,6.18-2,6.92-3.06,2-6.92,2-6.18-1.25-6.92-2S2.09,14.86,2.09,11ZM17,9.54A8,8,0,0,1,16.13,9c0,.32-.06.53-.06.52A18.08,18.08,0,0,0,17,15.38c.06,1.54-1.67,1.15-1.82.92s-.93-1.82-.93-6.76c0-1.77,0-2.61-.06-3,0,0,0,0,.06,0-.18-1.27,1.84-1,1.84-1l1.84,3S18.78,10.28,17,9.54ZM11,14a1,1,0,1,1,1-1A1,1,0,0,1,11,14ZM7.11,16.26c-.16.23-2,.63-2-.91a16.56,16.56,0,0,0,1-5.84s0-.2-.06-.52a7.27,7.27,0,0,1-.92.51c-1.95.75-1-1-1-1l2-3s2.2-.26,2,1c0,0,.06,0,.07,0,0,.37-.07,1.21-.07,3C8.12,14.45,7.28,16,7.11,16.26Z" fill="#00aeef"/></g></g></svg>