<svg xmlns="http://www.w3.org/2000/svg" viewBox="0 0 23 23"><title>nav-zoom-on</title><g id="Layer_2" data-name="Layer 2"><g id="Layer_1-2" data-name="Layer 1"><path d="M22.65,6.92a6.35,6.35,0,0,0-1.82-3.86C19.89,2.11,16.92,1,12,1S4.11,2.11,3.17,3.06A6.35,6.35,0,0,0,1.35,6.92,32.19,32.19,0,0,0,1,12a32.19,32.19,0,0,0,.35,5.08,6.35,6.35,0,0,0,1.82,3.86C4.11,21.89,7.08,23,12,23s7.89-1.11,8.83-2.06a6.35,6.35,0,0,0,1.82-3.86A32.19,32.19,0,0,0,23,12,32.19,32.19,0,0,0,22.65,6.92ZM3.09,12c0-3.86,1.25-6.18,2-6.92s3.06-2,6.92-2,6.18,1.25,6.92,2,2,3.06,2,6.92-1.25,6.18-2,6.92-3.06,2-6.92,2-6.18-1.25-6.92-2S3.09,15.86,3.09,12Zm14.59,4.07-2.07-2.68a4.92,4.92,0,0,0,.66-2.46,5.14,5.14,0,1,0-5.14,5,5.22,5.22,0,0,0,2.17-.48l2.85,2.08a1.1,1.1,0,0,0,1.53,0A1,1,0,0,0,17.68,16.07ZM8.17,10.93a3,3,0,1,1,3,2.91A2.94,2.94,0,0,1,8.17,10.93Z" fill="#00aeef"/><path d="M4,0A4,4,0,1,1,0,4,4,4,0,0,1,4,0Z" fill="#8dc63f" fill-rule="evenodd"/></g></g></svg>