<svg xmlns="http://www.w3.org/2000/svg" viewBox="0 0 22.91 21.12"><title>nav-magnify-over</title><g id="Layer_2" data-name="Layer 2"><g id="Layer_1-2" data-name="Layer 1"><path d="M21.48,7.58h0a8.64,8.64,0,0,0-8.67-3.69C8.36.49,2.53,6.38,5.9,10.89a8.71,8.71,0,0,0,10.93,9.87A8.82,8.82,0,0,0,21.48,7.58Zm-15.72.3a4.1,4.1,0,0,1,5.88-3.69A8.66,8.66,0,0,0,6.2,9.69,4,4,0,0,1,5.76,7.88ZM7.87,15c-2.14-5.58,3.46-11.24,9-9.08A12.38,12.38,0,0,1,7.87,15Zm6.48,4.51a6.89,6.89,0,0,1-2.72-.56,17.36,17.36,0,0,0,9.12-9.22A7.09,7.09,0,0,1,14.35,19.47Z" fill="#00aeef"/><circle cx="4" cy="4" r="3" fill="#3b4850"/><path d="M4,2A2,2,0,1,1,2,4,2,2,0,0,1,4,2M4,0A4,4,0,1,0,8,4,4,4,0,0,0,4,0Z" fill="#a0a09f"/></g></g></svg>