<svg xmlns="http://www.w3.org/2000/svg" viewBox="0 0 22 22"><symbol id="on-over" viewBox="0 0 22 22"><title>nav-view-report-over-on</title><g id="Layer_2" data-name="Layer 2"><g id="Layer_1-2" data-name="Layer 1"><path d="M21.65,5.92a6.35,6.35,0,0,0-1.82-3.86C18.89,1.11,15.92,0,11,0S3.11,1.11,2.17,2.06A6.35,6.35,0,0,0,.35,5.92,32.19,32.19,0,0,0,0,11a32.19,32.19,0,0,0,.35,5.08,6.35,6.35,0,0,0,1.82,3.86C3.11,20.89,6.08,22,11,22s7.89-1.11,8.83-2.06a6.35,6.35,0,0,0,1.82-3.86A32.19,32.19,0,0,0,22,11,32.19,32.19,0,0,0,21.65,5.92ZM12,6l4,3s-.37,1-1,1H13a2,2,0,0,1-1-1V6Zm2,6s1,.4,1,1-1,1-1,1H8s-1-.41-1-1,1-1,1-1ZM8,15h6s1,.4,1,1-1,1-1,1H8s-1-.41-1-1S8,15,8,15Zm0,3h6s1,.4,1,1c0,.27-1,1-1,1H8s-1-.75-1-1C7,18.4,8,18,8,18Zm9.92-.08a11.24,11.24,0,0,1-.92.84V8L14,5.21H6A1,1,0,0,0,5,6.29V18.76a9.76,9.76,0,0,1-.92-.84c-.74-.74-2-3.06-2-6.92s1.25-6.18,2-6.92,3.06-2,6.92-2,6.18,1.25,6.92,2,2,3.06,2,6.92S18.66,17.18,17.92,17.92Z" fill="#00aeef"/></g></g></symbol><symbol id="off" viewBox="0 0 22 22"><defs><linearGradient id="linear-gradient" x1="11" x2="11" y2="22" gradientUnits="userSpaceOnUse"><stop offset="0" stop-color="#00aeef"/><stop offset="0.19" stop-color="#00a7e8"/><stop offset="0.46" stop-color="#0194d3"/><stop offset="0.79" stop-color="#0175b2"/><stop offset="1" stop-color="#025e9a"/></linearGradient></defs><title>nav-view-report-off</title><g id="Layer_2" data-name="Layer 2"><g id="Layer_1-2" data-name="Layer 1"><path d="M21.65,5.92a6.35,6.35,0,0,0-1.82-3.86C18.89,1.11,15.92,0,11,0S3.11,1.11,2.17,2.06A6.35,6.35,0,0,0,.35,5.92,32.19,32.19,0,0,0,0,11a32.19,32.19,0,0,0,.35,5.08,6.35,6.35,0,0,0,1.82,3.86C3.11,20.89,6.08,22,11,22s7.89-1.11,8.83-2.06a6.35,6.35,0,0,0,1.82-3.86A32.19,32.19,0,0,0,22,11,32.19,32.19,0,0,0,21.65,5.92ZM12,6l4,3s-.37,1-1,1H13a2,2,0,0,1-1-1V6Zm2,6s1,.4,1,1-1,1-1,1H8s-1-.41-1-1,1-1,1-1ZM8,15h6s1,.4,1,1-1,1-1,1H8s-1-.41-1-1S8,15,8,15Zm0,3h6s1,.4,1,1c0,.27-1,1-1,1H8s-1-.75-1-1C7,18.4,8,18,8,18Zm9.92-.08a11.24,11.24,0,0,1-.92.84V8L14,5.21H6A1,1,0,0,0,5,6.29V18.76a9.76,9.76,0,0,1-.92-.84c-.74-.74-2-3.06-2-6.92s1.25-6.18,2-6.92,3.06-2,6.92-2,6.18,1.25,6.92,2,2,3.06,2,6.92S18.66,17.18,17.92,17.92Z" fill="url(#linear-gradient)"/></g></g></symbol></svg>