<svg xmlns="http://www.w3.org/2000/svg" viewBox="0 0 18.19 20"><symbol id="on" viewBox="0 0 18.19 20"><title>nav-advanced-elipse-on</title><g id="Layer_2" data-name="Layer 2"><g id="Layer_1-2" data-name="Layer 1"><path d="M9.19,2a9,9,0,1,0,9,9A9,9,0,0,0,9.19,2Zm0,15.75A6.75,6.75,0,1,1,15.94,11,6.76,6.76,0,0,1,9.19,17.75Z" fill="#00aeef"/><path d="M4,0A4,4,0,1,1,0,4,4,4,0,0,1,4,0Z" fill="#8dc63f" fill-rule="evenodd"/></g></g></symbol><symbol id="off" viewBox="0 0 18.19 20"><defs><linearGradient id="linear-gradient" x1="-32.81" y1="2" x2="-32.81" y2="20" gradientTransform="translate(42)" gradientUnits="userSpaceOnUse"><stop offset="0" stop-color="#00aeef"/><stop offset="0.19" stop-color="#00a7e8"/><stop offset="0.46" stop-color="#0194d3"/><stop offset="0.79" stop-color="#0175b2"/><stop offset="1" stop-color="#025e9a"/></linearGradient></defs><title>nav-advanced-ellipse-off</title><g id="Layer_2" data-name="Layer 2"><g id="Layer_1-2" data-name="Layer 1"><path d="M9.19,2a9,9,0,1,0,9,9A9,9,0,0,0,9.19,2Zm0,15.75A6.75,6.75,0,1,1,15.94,11,6.76,6.76,0,0,1,9.19,17.75Z" fill="url(#linear-gradient)"/><circle cx="4" cy="4" r="3" fill="#3b4850"/><path d="M4,2A2,2,0,1,1,2,4,2,2,0,0,1,4,2M4,0A4,4,0,1,0,8,4,4,4,0,0,0,4,0Z" fill="#a0a09f"/></g></g></symbol><symbol id="over" viewBox="0 0 18.19 20"><title>nav-advanced-ellipse-over</title><g id="Layer_2" data-name="Layer 2"><g id="Layer_1-2" data-name="Layer 1"><path d="M9.19,2a9,9,0,1,0,9,9A9,9,0,0,0,9.19,2Zm0,15.75A6.75,6.75,0,1,1,15.94,11,6.76,6.76,0,0,1,9.19,17.75Z" fill="#00aeef"/><circle cx="4" cy="4" r="3" fill="#3b4850"/><path d="M4,2A2,2,0,1,1,2,4,2,2,0,0,1,4,2M4,0A4,4,0,1,0,8,4,4,4,0,0,0,4,0Z" fill="#a0a09f"/></g></g></symbol></svg>