<svg xmlns="http://www.w3.org/2000/svg" viewBox="0 0 26 12.01"><title>nav-cine-forward</title><g id="Layer_2" data-name="Layer 2"><g id="Layer_1-2" data-name="Layer 1"><path d="M10.24,4.74,2.38.25A1.57,1.57,0,0,0,1.57,0,1.61,1.61,0,0,0,.8.23,1.46,1.46,0,0,0,0,1.53v9a1.46,1.46,0,0,0,.8,1.3,1.62,1.62,0,0,0,1.58,0L10.24,7.3a1.46,1.46,0,0,0,0-2.56Zm11,0L13.38.25A1.57,1.57,0,0,0,12.57,0a1.61,1.61,0,0,0-.77.2,1.46,1.46,0,0,0-.8,1.3v9a1.46,1.46,0,0,0,.8,1.3,1.62,1.62,0,0,0,1.58,0L21.24,7.3a1.46,1.46,0,0,0,0-2.56ZM25,0H24a1,1,0,0,0-1,1V11a1,1,0,0,0,1,1h1a1,1,0,0,0,1-1V1A1,1,0,0,0,25,0Z" fill="#00aeef" fill-rule="evenodd"/></g></g></svg>