<svg xmlns="http://www.w3.org/2000/svg" viewBox="0 0 15.01 18.01"><symbol id="on-over" viewBox="0 0 15.01 18.01"><title>nav-clear-over-on</title><g id="Layer_2" data-name="Layer 2"><g id="Layer_1-2" data-name="Layer 1"><path d="M7.5,3V.75A.74.74,0,0,0,7.07.07a.78.78,0,0,0-.8.1L1.77,3.93a.75.75,0,0,0,0,1.15l4.5,3.75A.74.74,0,0,0,6.75,9a.77.77,0,0,0,.75-.75V6A4.51,4.51,0,1,1,3,10.51a1.5,1.5,0,0,0-3,0A7.51,7.51,0,1,0,7.5,3Z" fill="#00aeef"/></g></g></symbol><symbol id="off" viewBox="0 0 15.01 18.01"><defs><linearGradient id="linear-gradient" x1="7.5" x2="7.5" y2="18.01" gradientUnits="userSpaceOnUse"><stop offset="0" stop-color="#00aeef"/><stop offset="0.19" stop-color="#00a7e8"/><stop offset="0.46" stop-color="#0194d3"/><stop offset="0.79" stop-color="#0175b2"/><stop offset="1" stop-color="#025e9a"/></linearGradient></defs><title>nav-clear-off</title><g id="Layer_2" data-name="Layer 2"><g id="Layer_1-2" data-name="Layer 1"><path d="M7.5,3V.75A.74.74,0,0,0,7.07.07a.78.78,0,0,0-.8.1L1.77,3.93a.75.75,0,0,0,0,1.15l4.5,3.75A.74.74,0,0,0,6.75,9a.77.77,0,0,0,.75-.75V6A4.51,4.51,0,1,1,3,10.51a1.5,1.5,0,0,0-3,0A7.51,7.51,0,1,0,7.5,3Z" fill="url(#linear-gradient)"/></g></g></symbol></svg>