<svg xmlns="http://www.w3.org/2000/svg" viewBox="0 0 22 22"><symbol id="on-over" viewBox="0 0 22 22"><title>nav-cine-over-on</title><g id="Layer_2" data-name="Layer 2"><g id="Layer_1-2" data-name="Layer 1"><path d="M21.65,5.92a6.35,6.35,0,0,0-1.82-3.86C18.89,1.11,15.92,0,11,0S3.11,1.11,2.17,2.06A6.35,6.35,0,0,0,.35,5.92,32.19,32.19,0,0,0,0,11a32.19,32.19,0,0,0,.35,5.08,6.35,6.35,0,0,0,1.82,3.86C3.11,20.89,6.08,22,11,22s7.89-1.11,8.83-2.06a6.35,6.35,0,0,0,1.82-3.86A32.19,32.19,0,0,0,22,11,32.19,32.19,0,0,0,21.65,5.92ZM2.09,11c0-3.86,1.25-6.18,2-6.92s3.06-2,6.92-2,6.18,1.25,6.92,2,2,3.06,2,6.92-1.25,6.18-2,6.92-3.06,2-6.92,2-6.18-1.25-6.92-2S2.09,14.86,2.09,11ZM9.9,14.13a10.58,10.58,0,0,0,3.87-2.46.73.73,0,0,0,0-1A11.46,11.46,0,0,0,9.9,8.19a.57.57,0,0,0-.74.53,18.12,18.12,0,0,0,0,4.88A.58.58,0,0,0,9.9,14.13Zm6.18-7.28c.58.48.83,2.37.91,3.2A8.54,8.54,0,0,1,17,11c0,.36,0,.71,0,.95-.08,1.9-.64,3.25-1.2,3.62s-2.34.57-4.79.57-4.18-.17-4.81-.6-1-2.23-1.11-3A9.73,9.73,0,0,1,4.94,11a11.14,11.14,0,0,1,.14-1.51A5.4,5.4,0,0,1,5.9,6.88C6.31,6.53,8,6.16,11,6.16S15.58,6.44,16.08,6.85Z" fill="#00aeef"/></g></g></symbol><symbol id ="off" viewBox="0 0 22 22"><defs><linearGradient id="linear-gradient" x1="11" x2="11" y2="22" gradientUnits="userSpaceOnUse"><stop offset="0" stop-color="#00aeef"/><stop offset="0.19" stop-color="#00a7e8"/><stop offset="0.46" stop-color="#0194d3"/><stop offset="0.79" stop-color="#0175b2"/><stop offset="1" stop-color="#025e9a"/></linearGradient></defs><title>nav-cine-off</title><g id="Layer_2" data-name="Layer 2"><g id="Layer_1-2" data-name="Layer 1"><path d="M21.65,5.92a6.35,6.35,0,0,0-1.82-3.86C18.89,1.11,15.92,0,11,0S3.11,1.11,2.17,2.06A6.35,6.35,0,0,0,.35,5.92,32.19,32.19,0,0,0,0,11a32.19,32.19,0,0,0,.35,5.08,6.35,6.35,0,0,0,1.82,3.86C3.11,20.89,6.08,22,11,22s7.89-1.11,8.83-2.06a6.35,6.35,0,0,0,1.82-3.86A32.19,32.19,0,0,0,22,11,32.19,32.19,0,0,0,21.65,5.92ZM2.09,11c0-3.86,1.25-6.18,2-6.92s3.06-2,6.92-2,6.18,1.25,6.92,2,2,3.06,2,6.92-1.25,6.18-2,6.92-3.06,2-6.92,2-6.18-1.25-6.92-2S2.09,14.86,2.09,11ZM9.9,14.13a10.58,10.58,0,0,0,3.87-2.46.73.73,0,0,0,0-1A11.46,11.46,0,0,0,9.9,8.19a.57.57,0,0,0-.74.53,18.12,18.12,0,0,0,0,4.88A.58.58,0,0,0,9.9,14.13Zm6.18-7.28c.58.48.83,2.37.91,3.2A8.54,8.54,0,0,1,17,11c0,.36,0,.71,0,.95-.08,1.9-.64,3.25-1.2,3.62s-2.34.57-4.79.57-4.18-.17-4.81-.6-1-2.23-1.11-3A9.73,9.73,0,0,1,4.94,11a11.14,11.14,0,0,1,.14-1.51A5.4,5.4,0,0,1,5.9,6.88C6.31,6.53,8,6.16,11,6.16S15.58,6.44,16.08,6.85Z" fill="url(#linear-gradient)"/></g></g></symbol></svg> 