<svg xmlns="http://www.w3.org/2000/svg" viewBox="0 0 21.95 22.01"><symbol id="on-over" viewBox="0 0 21.95 22.01"><title>nav-share-over-on</title><g id="Layer_2" data-name="Layer 2"><g id="Layer_1-2" data-name="Layer 1"><path d="M22,13a25.68,25.68,0,0,1-.3,3.1A6.41,6.41,0,0,1,19.83,20C18.89,20.9,15.92,22,11,22S3.11,20.9,2.17,20A6.41,6.41,0,0,1,.35,16.09,32.19,32.19,0,0,1,0,11,32.19,32.19,0,0,1,.35,5.93,6.35,6.35,0,0,1,2.17,2.07C3,1.26,5.26.33,9,.08V2.22A8.83,8.83,0,0,0,4.08,4.09c-.74.74-2,3.07-2,6.92a12.94,12.94,0,0,0,1.09,5.53l.7-1.78s1-1.67,1.94-1.83A18.45,18.45,0,0,1,11,13a2.88,2.88,0,0,1,2,2c.41,1.75.77,3.84.92,4.65a8.11,8.11,0,0,0,4-1.72A8.84,8.84,0,0,0,19.8,13ZM12.08,9.85a1.42,1.42,0,0,0,2,0l5.06-4.26V8.83a1.41,1.41,0,0,0,2.4,1,1.39,1.39,0,0,0,.41-1V1.41a2.46,2.46,0,0,0,0-.28s0-.08,0-.11a.83.83,0,0,0,0-.15c0-.05-.05-.09-.07-.13L21.71.63a1.45,1.45,0,0,0-.39-.39A.67.67,0,0,0,21.2.18L21.08.11l-.16,0-.11,0a1.27,1.27,0,0,0-.28,0H13.11a1.41,1.41,0,1,0,0,2.81h3.24L12.08,7.86A1.41,1.41,0,0,0,12.08,9.85ZM5,8A3,3,0,1,0,8,5,3,3,0,0,0,5,8Z" fill="#00aeef"/></g></g></symbol><symbol id="off" viewBox="0 0 21.95 22.01"><defs><linearGradient id="linear-gradient" x1="10.98" x2="10.98" y2="22.01" gradientUnits="userSpaceOnUse"><stop offset="0" stop-color="#00aeef"/><stop offset="0.19" stop-color="#00a7e8"/><stop offset="0.46" stop-color="#0194d3"/><stop offset="0.79" stop-color="#0175b2"/><stop offset="1" stop-color="#025e9a"/></linearGradient></defs><title>nav-share-off</title><g id="Layer_2" data-name="Layer 2"><g id="Layer_1-2" data-name="Layer 1"><path d="M22,13a25.68,25.68,0,0,1-.3,3.1A6.41,6.41,0,0,1,19.83,20C18.89,20.9,15.92,22,11,22S3.11,20.9,2.17,20A6.41,6.41,0,0,1,.35,16.09,32.19,32.19,0,0,1,0,11,32.19,32.19,0,0,1,.35,5.93,6.35,6.35,0,0,1,2.17,2.07C3,1.26,5.26.33,9,.08V2.22A8.83,8.83,0,0,0,4.08,4.09c-.74.74-2,3.07-2,6.92a12.94,12.94,0,0,0,1.09,5.53l.7-1.78s1-1.67,1.94-1.83A18.45,18.45,0,0,1,11,13a2.88,2.88,0,0,1,2,2c.41,1.75.77,3.84.92,4.65a8.11,8.11,0,0,0,4-1.72A8.84,8.84,0,0,0,19.8,13ZM12.08,9.85a1.42,1.42,0,0,0,2,0l5.06-4.26V8.83a1.41,1.41,0,0,0,2.4,1,1.39,1.39,0,0,0,.41-1V1.41a2.46,2.46,0,0,0,0-.28s0-.08,0-.11a.83.83,0,0,0,0-.15c0-.05-.05-.09-.07-.13L21.71.63a1.45,1.45,0,0,0-.39-.39A.67.67,0,0,0,21.2.18L21.08.11l-.16,0-.11,0a1.27,1.27,0,0,0-.28,0H13.11a1.41,1.41,0,1,0,0,2.81h3.24L12.08,7.86A1.41,1.41,0,0,0,12.08,9.85ZM5,8A3,3,0,1,0,8,5,3,3,0,0,0,5,8Z" fill="url(#linear-gradient)"/></g></g></symbol></svg>