<svg xmlns="http://www.w3.org/2000/svg" viewBox="0 0 23.19 24"><symbol id="on" viewBox = "0 0 23.19 24"><title>nav-advanced-angle-on</title><g id="Layer_2" data-name="Layer 2"><g id="Layer_1-2" data-name="Layer 1"><path d="M22.84,7.92A6.34,6.34,0,0,0,21,4.06C20.08,3.11,17.11,2,12.19,2S4.3,3.11,3.36,4.06A6.4,6.4,0,0,0,1.54,7.92,33.43,33.43,0,0,0,1.19,13a33.43,33.43,0,0,0,.35,5.08,6.4,6.4,0,0,0,1.82,3.86C4.3,22.89,7.27,24,12.19,24s7.89-1.11,8.84-2.06a6.34,6.34,0,0,0,1.81-3.86A32.19,32.19,0,0,0,23.19,13,32.19,32.19,0,0,0,22.84,7.92ZM3.28,13c0-3.86,1.25-6.18,2-6.92s3.07-2,6.92-2,6.19,1.25,6.93,2,2,3.06,2,6.92-1.25,6.18-2,6.92-3.07,2-6.93,2-6.18-1.25-6.92-2S3.28,16.86,3.28,13ZM17.19,7h-8a3,3,0,0,0-3,3v9c.55.59,1.46.84,3,1V16A10.82,10.82,0,0,0,13,13.61,9.37,9.37,0,0,0,15.19,10h4C19.26,9.07,19,7,17.19,7Zm-8,7V10h4A6.19,6.19,0,0,1,9.19,14Z" fill="#00aeef"/><path d="M4,0A4,4,0,1,1,0,4,4,4,0,0,1,4,0Z" fill="#8dc63f" fill-rule="evenodd"/></g></g></symbol><symbol id="off" "0 0 23.19 24"><defs><linearGradient id="linear-gradient" x1="12.19" y1="2" x2="12.19" y2="24" gradientUnits="userSpaceOnUse"><stop offset="0" stop-color="#00aeef"/><stop offset="0.19" stop-color="#00a7e8"/><stop offset="0.46" stop-color="#0194d3"/><stop offset="0.79" stop-color="#0175b2"/><stop offset="1" stop-color="#025e9a"/></linearGradient></defs><title>nav-advanced-angle-off</title><g id="Layer_2" data-name="Layer 2"><g id="Layer_1-2" data-name="Layer 1"><path d="M22.84,7.92A6.34,6.34,0,0,0,21,4.06C20.08,3.11,17.11,2,12.19,2S4.3,3.11,3.36,4.06A6.4,6.4,0,0,0,1.54,7.92,33.43,33.43,0,0,0,1.19,13a33.43,33.43,0,0,0,.35,5.08,6.4,6.4,0,0,0,1.82,3.86C4.3,22.89,7.27,24,12.19,24s7.89-1.11,8.84-2.06a6.34,6.34,0,0,0,1.81-3.86A32.19,32.19,0,0,0,23.19,13,32.19,32.19,0,0,0,22.84,7.92ZM3.28,13c0-3.86,1.25-6.18,2-6.92s3.07-2,6.92-2,6.19,1.25,6.93,2,2,3.06,2,6.92-1.25,6.18-2,6.92-3.07,2-6.93,2-6.18-1.25-6.92-2S3.28,16.86,3.28,13ZM17.19,7h-8a3,3,0,0,0-3,3v9c.55.59,1.46.84,3,1V16A10.82,10.82,0,0,0,13,13.61,9.37,9.37,0,0,0,15.19,10h4C19.26,9.07,19,7,17.19,7Zm-8,7V10h4A6.19,6.19,0,0,1,9.19,14Z" fill="url(#linear-gradient)"/><circle cx="4" cy="4" r="3" fill="#3b4850"/><path d="M4,2A2,2,0,1,1,2,4,2,2,0,0,1,4,2M4,0A4,4,0,1,0,8,4,4,4,0,0,0,4,0Z" fill="#a0a09f"/></g></g></symbol><symbol id="over" viewBox="0 0 23.19 24"><title>nav-advanced-angle-over</title><g id="Layer_2" data-name="Layer 2"><g id="Layer_1-2" data-name="Layer 1"><path d="M22.84,7.92A6.34,6.34,0,0,0,21,4.06C20.08,3.11,17.11,2,12.19,2S4.3,3.11,3.36,4.06A6.4,6.4,0,0,0,1.54,7.92,33.43,33.43,0,0,0,1.19,13a33.43,33.43,0,0,0,.35,5.08,6.4,6.4,0,0,0,1.82,3.86C4.3,22.89,7.27,24,12.19,24s7.89-1.11,8.84-2.06a6.34,6.34,0,0,0,1.81-3.86A32.19,32.19,0,0,0,23.19,13,32.19,32.19,0,0,0,22.84,7.92ZM3.28,13c0-3.86,1.25-6.18,2-6.92s3.07-2,6.92-2,6.19,1.25,6.93,2,2,3.06,2,6.92-1.25,6.18-2,6.92-3.07,2-6.93,2-6.18-1.25-6.92-2S3.28,16.86,3.28,13ZM17.19,7h-8a3,3,0,0,0-3,3v9c.55.59,1.46.84,3,1V16A10.82,10.82,0,0,0,13,13.61,9.37,9.37,0,0,0,15.19,10h4C19.26,9.07,19,7,17.19,7Zm-8,7V10h4A6.19,6.19,0,0,1,9.19,14Z" fill="#00aeef"/><circle cx="4" cy="4" r="3" fill="#3b4850"/><path d="M4,2A2,2,0,1,1,2,4,2,2,0,0,1,4,2M4,0A4,4,0,1,0,8,4,4,4,0,0,0,4,0Z" fill="#a0a09f"/></g></g></symbol></svg>