<svg xmlns="http://www.w3.org/2000/svg" viewBox="0 0 23 23"><title>nav-levels-over</title><g id="Layer_2" data-name="Layer 2"><g id="Layer_1-2" data-name="Layer 1"><path d="M19,15v2H13V15ZM10,6H8V8H6v2H8v2h2V10h2V8H10Zm12.65.92a6.35,6.35,0,0,0-1.82-3.86C19.89,2.11,16.92,1,12,1S4.11,2.11,3.17,3.06A6.35,6.35,0,0,0,1.35,6.92,32.19,32.19,0,0,0,1,12a32.19,32.19,0,0,0,.35,5.08,6.35,6.35,0,0,0,1.82,3.86C4.11,21.89,7.08,23,12,23s7.89-1.11,8.83-2.06a6.35,6.35,0,0,0,1.82-3.86A32.19,32.19,0,0,0,23,12,32.19,32.19,0,0,0,22.65,6.92ZM3.09,12c0-3.86,1.25-6.18,2-6.92s3.06-2,6.92-2,6.1,1.2,6.88,2L5.12,19s0,0,0,0C4.34,18.18,3.09,15.86,3.09,12Z" fill="#00aeef"/><circle cx="4" cy="4" r="3" fill="#3b4850"/><path d="M4,2A2,2,0,1,1,2,4,2,2,0,0,1,4,2M4,0A4,4,0,1,0,8,4,4,4,0,0,0,4,0Z" fill="#a0a09f"/></g></g></svg>