<svg xmlns="http://www.w3.org/2000/svg" viewBox="0 0 22 22"><symbol id="on-over" viewBox="0 0 22 22"> <title>nav-wl-filters-lung-over-on</title><g id="Layer_2" data-name="Layer 2"><g id="Layer_1-2" data-name="Layer 1"><path d="M21.65,5.92a6.35,6.35,0,0,0-1.82-3.86C18.89,1.11,15.92,0,11,0S3.11,1.11,2.17,2.06A6.35,6.35,0,0,0,.35,5.92,32.19,32.19,0,0,0,0,11a32.19,32.19,0,0,0,.35,5.08,6.35,6.35,0,0,0,1.82,3.86C3.11,20.89,6.08,22,11,22s7.89-1.11,8.83-2.06a6.35,6.35,0,0,0,1.82-3.86A32.19,32.19,0,0,0,22,11,32.19,32.19,0,0,0,21.65,5.92ZM2.09,11c0-3.86,1.25-6.18,2-6.92s3.06-2,6.92-2,6.18,1.25,6.92,2,2,3.06,2,6.92-1.25,6.18-2,6.92-3.06,2-6.92,2-6.18-1.25-6.92-2S2.09,14.86,2.09,11ZM12,16a26.76,26.76,0,0,0,.93-4L11,10,9.08,11.92A28.94,28.94,0,0,0,10,16c-1.07,1.92-6.1,1.69-4.65-5.63C6.91,2.49,8.14,5.16,8.14,5.16s.21,1.9.53,4.17L10,8V5h2V8l1.35,1.35c.33-2.28.55-4.19.55-4.19s1.25-1.66,2.84,6.2C18.22,18.65,13.09,17.89,12,16Z" fill="#00aeef"/></g></g></symbol><symbol id="off"><defs><linearGradient id="linear-gradient" x1="11" x2="11" y2="22" gradientUnits="userSpaceOnUse"><stop offset="0" stop-color="#00aeef"/><stop offset="0.19" stop-color="#00a7e8"/><stop offset="0.46" stop-color="#0194d3"/><stop offset="0.79" stop-color="#0175b2"/><stop offset="1" stop-color="#025e9a"/></linearGradient></defs><title>nav-wl-filters-lung-off</title><g id="Layer_2" data-name="Layer 2"><g id="Layer_1-2" data-name="Layer 1"><path d="M21.65,5.92a6.35,6.35,0,0,0-1.82-3.86C18.89,1.11,15.92,0,11,0S3.11,1.11,2.17,2.06A6.35,6.35,0,0,0,.35,5.92,32.19,32.19,0,0,0,0,11a32.19,32.19,0,0,0,.35,5.08,6.35,6.35,0,0,0,1.82,3.86C3.11,20.89,6.08,22,11,22s7.89-1.11,8.83-2.06a6.35,6.35,0,0,0,1.82-3.86A32.19,32.19,0,0,0,22,11,32.19,32.19,0,0,0,21.65,5.92ZM2.09,11c0-3.86,1.25-6.18,2-6.92s3.06-2,6.92-2,6.18,1.25,6.92,2,2,3.06,2,6.92-1.25,6.18-2,6.92-3.06,2-6.92,2-6.18-1.25-6.92-2S2.09,14.86,2.09,11ZM12,16a26.76,26.76,0,0,0,.93-4L11,10,9.08,11.92A28.94,28.94,0,0,0,10,16c-1.07,1.92-6.1,1.69-4.65-5.63C6.91,2.49,8.14,5.16,8.14,5.16s.21,1.9.53,4.17L10,8V5h2V8l1.35,1.35c.33-2.28.55-4.19.55-4.19s1.25-1.66,2.84,6.2C18.22,18.65,13.09,17.89,12,16Z" fill="url(#linear-gradient)"/></g></g></symbol></svg>