<svg xmlns="http://www.w3.org/2000/svg" viewBox="0 0 22 22"><title>nav-cine-next</title><g id="Layer_2" data-name="Layer 2"><g id="Layer_1-2" data-name="Layer 1"><path d="M21.65,5.92a6.35,6.35,0,0,0-1.82-3.86C18.89,1.11,15.92,0,11,0S3.11,1.11,2.17,2.06A6.35,6.35,0,0,0,.35,5.92,32.19,32.19,0,0,0,0,11a32.19,32.19,0,0,0,.35,5.08,6.35,6.35,0,0,0,1.82,3.86C3.11,20.89,6.08,22,11,22s7.89-1.11,8.83-2.06a6.35,6.35,0,0,0,1.82-3.86A32.19,32.19,0,0,0,22,11,32.19,32.19,0,0,0,21.65,5.92ZM2.09,11c0-3.86,1.25-6.18,2-6.92s3.06-2,6.92-2,6.18,1.25,6.92,2,2,3.06,2,6.92-1.25,6.18-2,6.92-3.06,2-6.92,2-6.18-1.25-6.92-2S2.09,14.86,2.09,11Z" fill="#00aeef"/><path d="M6.57,8.48a1.45,1.45,0,0,1,1.06.44l3.44,3.48,3.44-3.48a1.49,1.49,0,0,1,2.12,0,1.53,1.53,0,0,1,0,2.14l-4.5,4.55a1.53,1.53,0,0,1-2.12,0l-4.5-4.55a1.53,1.53,0,0,1,0-2.14A1.47,1.47,0,0,1,6.57,8.48Z" fill="#00aeef"/></g></g></svg>