<svg xmlns="http://www.w3.org/2000/svg" viewBox="0 0 23 23"><symbol id="on" viewBox="0 0 23 23"> <title>nav-annotate-on</title><g id="Layer_2" data-name="Layer 2"><g id="Layer_1-2" data-name="Layer 1"><path d="M22.65,6.92a6.35,6.35,0,0,0-1.82-3.86C19.89,2.11,16.92,1,12,1S4.11,2.11,3.17,3.06A6.35,6.35,0,0,0,1.35,6.92,32.19,32.19,0,0,0,1,12a32.19,32.19,0,0,0,.35,5.08,6.35,6.35,0,0,0,1.82,3.86C4.11,21.89,7.08,23,12,23s7.89-1.11,8.83-2.06a6.35,6.35,0,0,0,1.82-3.86A32.19,32.19,0,0,0,23,12,32.19,32.19,0,0,0,22.65,6.92ZM3.09,12c0-3.86,1.25-6.18,2-6.92s3.06-2,6.92-2,6.18,1.25,6.92,2,2,3.06,2,6.92-1.25,6.18-2,6.92-3.06,2-6.92,2-6.18-1.25-6.92-2S3.09,15.86,3.09,12Zm15.1.77a7.69,7.69,0,0,1-2,3,4.29,4.29,0,0,1-4,0c-.84,1,0,3,0,3a1,1,0,0,1-1,0,9.55,9.55,0,0,1-3-3,3.6,3.6,0,0,1-2-2,9.7,9.7,0,0,1,.33-4.66A4.71,4.71,0,0,1,8.07,7.29c1.82-1,6.39-.84,8.29,0a4.57,4.57,0,0,1,1.83,1.5A7.64,7.64,0,0,1,18.19,12.77Z" fill="#00aeef"/><path d="M4,0A4,4,0,1,1,0,4,4,4,0,0,1,4,0Z" fill="#8dc63f" fill-rule="evenodd"/></g></g></symbol><symbol id="off" viewBox="0 0 23 23"><defs><linearGradient id="linear-gradient" x1="12" y1="1" x2="12" y2="23" gradientUnits="userSpaceOnUse"><stop offset="0" stop-color="#00aeef"/><stop offset="0.19" stop-color="#00a7e8"/><stop offset="0.46" stop-color="#0194d3"/><stop offset="0.79" stop-color="#0175b2"/><stop offset="1" stop-color="#025e9a"/></linearGradient></defs><title>nav-annotate-off</title><g id="Layer_2" data-name="Layer 2"><g id="Layer_1-2" data-name="Layer 1"><path d="M22.65,6.92a6.35,6.35,0,0,0-1.82-3.86C19.89,2.11,16.92,1,12,1S4.11,2.11,3.17,3.06A6.35,6.35,0,0,0,1.35,6.92,32.19,32.19,0,0,0,1,12a32.19,32.19,0,0,0,.35,5.08,6.35,6.35,0,0,0,1.82,3.86C4.11,21.89,7.08,23,12,23s7.89-1.11,8.83-2.06a6.35,6.35,0,0,0,1.82-3.86A32.19,32.19,0,0,0,23,12,32.19,32.19,0,0,0,22.65,6.92ZM3.09,12c0-3.86,1.25-6.18,2-6.92s3.06-2,6.92-2,6.18,1.25,6.92,2,2,3.06,2,6.92-1.25,6.18-2,6.92-3.06,2-6.92,2-6.18-1.25-6.92-2S3.09,15.86,3.09,12Zm15.1.77a7.69,7.69,0,0,1-2,3,4.29,4.29,0,0,1-4,0c-.84,1,0,3,0,3a1,1,0,0,1-1,0,9.55,9.55,0,0,1-3-3,3.6,3.6,0,0,1-2-2,9.7,9.7,0,0,1,.33-4.66A4.71,4.71,0,0,1,8.07,7.29c1.82-1,6.39-.84,8.29,0a4.57,4.57,0,0,1,1.83,1.5A7.64,7.64,0,0,1,18.19,12.77Z" fill="url(#linear-gradient)"/><circle cx="4" cy="4" r="3" fill="#3b4850"/><path d="M4,2A2,2,0,1,1,2,4,2,2,0,0,1,4,2M4,0A4,4,0,1,0,8,4,4,4,0,0,0,4,0Z" fill="#a0a09f"/></g></g></symbol><symbol id="over" viewBox="0 0 23 23"><title>nav-annotate-over</title><g id="Layer_2" data-name="Layer 2"><g id="Layer_1-2" data-name="Layer 1"><path d="M22.65,6.92a6.35,6.35,0,0,0-1.82-3.86C19.89,2.11,16.92,1,12,1S4.11,2.11,3.17,3.06A6.35,6.35,0,0,0,1.35,6.92,32.19,32.19,0,0,0,1,12a32.19,32.19,0,0,0,.35,5.08,6.35,6.35,0,0,0,1.82,3.86C4.11,21.89,7.08,23,12,23s7.89-1.11,8.83-2.06a6.35,6.35,0,0,0,1.82-3.86A32.19,32.19,0,0,0,23,12,32.19,32.19,0,0,0,22.65,6.92ZM3.09,12c0-3.86,1.25-6.18,2-6.92s3.06-2,6.92-2,6.18,1.25,6.92,2,2,3.06,2,6.92-1.25,6.18-2,6.92-3.06,2-6.92,2-6.18-1.25-6.92-2S3.09,15.86,3.09,12Zm15.1.77a7.69,7.69,0,0,1-2,3,4.29,4.29,0,0,1-4,0c-.84,1,0,3,0,3a1,1,0,0,1-1,0,9.55,9.55,0,0,1-3-3,3.6,3.6,0,0,1-2-2,9.7,9.7,0,0,1,.33-4.66A4.71,4.71,0,0,1,8.07,7.29c1.82-1,6.39-.84,8.29,0a4.57,4.57,0,0,1,1.83,1.5A7.64,7.64,0,0,1,18.19,12.77Z" fill="#00aeef"/><circle cx="4" cy="4" r="3" fill="#3b4850"/><path d="M4,2A2,2,0,1,1,2,4,2,2,0,0,1,4,2M4,0A4,4,0,1,0,8,4,4,4,0,0,0,4,0Z" fill="#a0a09f"/></g></g></symbol></svg>