<svg xmlns="http://www.w3.org/2000/svg" xmlns:xlink="http://www.w3.org/1999/xlink" viewBox="0 0 18.19 20"><defs><linearGradient id="linear-gradient" x1="-32.81" y1="2" x2="-32.81" y2="20" gradientTransform="translate(42)" gradientUnits="userSpaceOnUse"><stop offset="0" stop-color="#00aeef"/><stop offset="0.19" stop-color="#00a7e8"/><stop offset="0.46" stop-color="#0194d3"/><stop offset="0.79" stop-color="#0175b2"/><stop offset="1" stop-color="#025e9a"/></linearGradient></defs><title>nav-advanced-probe-off</title><g id="Layer_2" data-name="Layer 2"><g id="Layer_1-2" data-name="Layer 1"><path d="M9.19,2a9,9,0,1,0,9,9A9,9,0,0,0,9.19,2Zm0,15.75A6.75,6.75,0,1,1,15.94,11,6.76,6.76,0,0,1,9.19,17.75ZM7.61,9.41A2.22,2.22,0,0,0,6.94,11a1.61,1.61,0,0,0,0,.44,2.3,2.3,0,0,0,.12.43,2.48,2.48,0,0,0,.22.38,1.44,1.44,0,0,0,.28.34,2.19,2.19,0,0,0,.72.49,2.31,2.31,0,0,0,.86.17,2.27,2.27,0,0,0,1.59-.66,2.2,2.2,0,0,0,.28-.34,1.8,1.8,0,0,0,.21-.38,1.76,1.76,0,0,0,.13-.43,2.12,2.12,0,0,0,0-.44,2.21,2.21,0,0,0-.66-1.59A2.31,2.31,0,0,0,7.61,9.41Z" fill="url(#linear-gradient)"/><circle cx="4" cy="4" r="3" fill="#3b4850"/><path d="M4,2A2,2,0,1,1,2,4,2,2,0,0,1,4,2M4,0A4,4,0,1,0,8,4,4,4,0,0,0,4,0Z" fill="#a0a09f"/></g></g></svg>