<svg xmlns="http://www.w3.org/2000/svg" viewBox="0 0 22 22"><symbol id="on-over" viewBox="0 0 22 22"><title>nav-wl-filters-brain-over-on</title><g id="Layer_2" data-name="Layer 2"><g id="Layer_1-2" data-name="Layer 1"><path d="M8,12V10c0,1.12,2,2,2,2V5S4.42,4.43,8,8c-2.77-1.19-3-.06-3,3.14,0,4.76,2.59,2.27,3,1.91C7.54,13.49,4.38,17,10,17V14C8.19,14,8,12,8,12Zm4,5c5.63,0,2.38-3.6,2-4,.34.35,3,2.79,3-2,0-3.2-.74-4.19-3.5-3C18,4.39,12,5,12,5v7s2-.88,2-2v2s-.2,2-2,2ZM21.65,5.92a6.35,6.35,0,0,0-1.82-3.86C18.89,1.11,15.92,0,11,0S3.11,1.11,2.17,2.06A6.35,6.35,0,0,0,.35,5.92,32.19,32.19,0,0,0,0,11a32.19,32.19,0,0,0,.35,5.08,6.35,6.35,0,0,0,1.82,3.86C3.11,20.89,6.08,22,11,22s7.89-1.11,8.83-2.06a6.35,6.35,0,0,0,1.82-3.86A32.19,32.19,0,0,0,22,11,32.19,32.19,0,0,0,21.65,5.92ZM2.09,11c0-3.86,1.25-6.18,2-6.92s3.06-2,6.92-2,6.18,1.25,6.92,2,2,3.06,2,6.92-1.25,6.18-2,6.92-3.06,2-6.92,2-6.18-1.25-6.92-2S2.09,14.86,2.09,11Z" fill="#00aeef"/></g></g></symbol><symbol id="off"><defs><linearGradient id="linear-gradient" x1="11" x2="11" y2="22" gradientUnits="userSpaceOnUse"><stop offset="0" stop-color="#00aeef"/><stop offset="0.19" stop-color="#00a7e8"/><stop offset="0.46" stop-color="#0194d3"/><stop offset="0.79" stop-color="#0175b2"/><stop offset="1" stop-color="#025e9a"/></linearGradient></defs><title>nav-wl-filters-brain-off</title><g id="Layer_2" data-name="Layer 2"><g id="Layer_1-2" data-name="Layer 1"><path d="M8,12V10c0,1.12,2,2,2,2V5S4.42,4.43,8,8c-2.77-1.19-3-.06-3,3.14,0,4.76,2.59,2.27,3,1.91C7.54,13.49,4.38,17,10,17V14C8.19,14,8,12,8,12Zm4,5c5.63,0,2.38-3.6,2-4,.34.35,3,2.79,3-2,0-3.2-.74-4.19-3.5-3C18,4.39,12,5,12,5v7s2-.88,2-2v2s-.2,2-2,2ZM21.65,5.92a6.35,6.35,0,0,0-1.82-3.86C18.89,1.11,15.92,0,11,0S3.11,1.11,2.17,2.06A6.35,6.35,0,0,0,.35,5.92,32.19,32.19,0,0,0,0,11a32.19,32.19,0,0,0,.35,5.08,6.35,6.35,0,0,0,1.82,3.86C3.11,20.89,6.08,22,11,22s7.89-1.11,8.83-2.06a6.35,6.35,0,0,0,1.82-3.86A32.19,32.19,0,0,0,22,11,32.19,32.19,0,0,0,21.65,5.92ZM2.09,11c0-3.86,1.25-6.18,2-6.92s3.06-2,6.92-2,6.18,1.25,6.92,2,2,3.06,2,6.92-1.25,6.18-2,6.92-3.06,2-6.92,2-6.18-1.25-6.92-2S2.09,14.86,2.09,11Z" fill="url(#linear-gradient)"/></g></g></symbol></svg>