<svg xmlns="http://www.w3.org/2000/svg" viewBox="0 0 22 22"><symbol id="on-over" viewBox="0 0 22 22"><title>nav-layout-over-on</title><g id="Layer_2" data-name="Layer 2"><g id="Layer_1-2" data-name="Layer 1"><path d="M21.65,5.92a6.35,6.35,0,0,0-1.82-3.86C18.89,1.11,15.92,0,11,0S3.11,1.11,2.17,2.06A6.35,6.35,0,0,0,.35,5.92,32.19,32.19,0,0,0,0,11a32.19,32.19,0,0,0,.35,5.08,6.35,6.35,0,0,0,1.82,3.86C3.11,20.89,6.08,22,11,22s7.89-1.11,8.83-2.06a6.35,6.35,0,0,0,1.82-3.86A32.19,32.19,0,0,0,22,11,32.19,32.19,0,0,0,21.65,5.92ZM2.09,11c0-3.86,1.25-6.18,2-6.92s3.06-2,6.92-2,6.18,1.25,6.92,2,2,3.06,2,6.92-1.25,6.18-2,6.92-3.06,2-6.92,2-6.18-1.25-6.92-2S2.09,14.86,2.09,11ZM12.71,9.77a4,4,0,0,0,2.62,0,.84.84,0,0,0,.57-.63,6.4,6.4,0,0,0,0-2.35.87.87,0,0,0-.66-.68,5.49,5.49,0,0,0-2.42,0,.83.83,0,0,0-.64.61,4.53,4.53,0,0,0,0,2.45A.85.85,0,0,0,12.71,9.77Zm2.52,2.36a5.49,5.49,0,0,0-2.42,0,.83.83,0,0,0-.64.61,4.53,4.53,0,0,0,0,2.45.85.85,0,0,0,.55.57,4,4,0,0,0,2.62,0,.84.84,0,0,0,.57-.63,6.4,6.4,0,0,0,0-2.35A.87.87,0,0,0,15.23,12.13Zm-6-6a5.49,5.49,0,0,0-2.42,0,.83.83,0,0,0-.64.61,4.53,4.53,0,0,0,0,2.45.85.85,0,0,0,.55.57,4,4,0,0,0,2.62,0,.84.84,0,0,0,.57-.63,6.4,6.4,0,0,0,0-2.35A.87.87,0,0,0,9.23,6.13Zm0,6a5.49,5.49,0,0,0-2.42,0,.83.83,0,0,0-.64.61,4.53,4.53,0,0,0,0,2.45.85.85,0,0,0,.55.57,4,4,0,0,0,2.62,0,.84.84,0,0,0,.57-.63,6.4,6.4,0,0,0,0-2.35A.87.87,0,0,0,9.23,12.13Z" fill="#00aeef"/></g></g></symbol><symbol id="off" viewBox="0 0 22 22"><defs><linearGradient id="linear-gradient" x1="11" x2="11" y2="22" gradientUnits="userSpaceOnUse"><stop offset="0" stop-color="#00aeef"/><stop offset="0.19" stop-color="#00a7e8"/><stop offset="0.46" stop-color="#0194d3"/><stop offset="0.79" stop-color="#0175b2"/><stop offset="1" stop-color="#025e9a"/></linearGradient></defs><title>nav-layout-off</title><g id="Layer_2" data-name="Layer 2"><g id="Layer_1-2" data-name="Layer 1"><path d="M21.65,5.92a6.35,6.35,0,0,0-1.82-3.86C18.89,1.11,15.92,0,11,0S3.11,1.11,2.17,2.06A6.35,6.35,0,0,0,.35,5.92,32.19,32.19,0,0,0,0,11a32.19,32.19,0,0,0,.35,5.08,6.35,6.35,0,0,0,1.82,3.86C3.11,20.89,6.08,22,11,22s7.89-1.11,8.83-2.06a6.35,6.35,0,0,0,1.82-3.86A32.19,32.19,0,0,0,22,11,32.19,32.19,0,0,0,21.65,5.92ZM2.09,11c0-3.86,1.25-6.18,2-6.92s3.06-2,6.92-2,6.18,1.25,6.92,2,2,3.06,2,6.92-1.25,6.18-2,6.92-3.06,2-6.92,2-6.18-1.25-6.92-2S2.09,14.86,2.09,11ZM12.71,9.77a4,4,0,0,0,2.62,0,.84.84,0,0,0,.57-.63,6.4,6.4,0,0,0,0-2.35.87.87,0,0,0-.66-.68,5.49,5.49,0,0,0-2.42,0,.83.83,0,0,0-.64.61,4.53,4.53,0,0,0,0,2.45A.85.85,0,0,0,12.71,9.77Zm2.52,2.36a5.49,5.49,0,0,0-2.42,0,.83.83,0,0,0-.64.61,4.53,4.53,0,0,0,0,2.45.85.85,0,0,0,.55.57,4,4,0,0,0,2.62,0,.84.84,0,0,0,.57-.63,6.4,6.4,0,0,0,0-2.35A.87.87,0,0,0,15.23,12.13Zm-6-6a5.49,5.49,0,0,0-2.42,0,.83.83,0,0,0-.64.61,4.53,4.53,0,0,0,0,2.45.85.85,0,0,0,.55.57,4,4,0,0,0,2.62,0,.84.84,0,0,0,.57-.63,6.4,6.4,0,0,0,0-2.35A.87.87,0,0,0,9.23,6.13Zm0,6a5.49,5.49,0,0,0-2.42,0,.83.83,0,0,0-.64.61,4.53,4.53,0,0,0,0,2.45.85.85,0,0,0,.55.57,4,4,0,0,0,2.62,0,.84.84,0,0,0,.57-.63,6.4,6.4,0,0,0,0-2.35A.87.87,0,0,0,9.23,12.13Z" fill="url(#linear-gradient)"/></g></g></symbol></svg>