<svg xmlns="http://www.w3.org/2000/svg" viewBox="0 0 22 22"><symbol id="on-over" viewBox="0 0 22 22"><title>nav-wl-filters-over-on</title><g id="Layer_2" data-name="Layer 2"><g id="Layer_1-2" data-name="Layer 1"><path d="M21.65,5.92a6.35,6.35,0,0,0-1.82-3.86C18.89,1.11,15.92,0,11,0S3.11,1.11,2.17,2.06A6.35,6.35,0,0,0,.35,5.92,32.19,32.19,0,0,0,0,11a32.19,32.19,0,0,0,.35,5.08,6.35,6.35,0,0,0,1.82,3.86C3.11,20.89,6.08,22,11,22s7.89-1.11,8.83-2.06a6.35,6.35,0,0,0,1.82-3.86A32.19,32.19,0,0,0,22,11,32.19,32.19,0,0,0,21.65,5.92ZM2.09,11c0-3.86,1.25-6.18,2-6.92s3.06-2,6.92-2,6.18,1.25,6.92,2,2,3.06,2,6.92-1.25,6.18-2,6.92-3.06,2-6.92,2-6.18-1.25-6.92-2S2.09,14.86,2.09,11Zm5.14-.87L7,10.1V6A1,1,0,0,0,5,6v4.11l-.21,0a.83.83,0,0,0-.64.61,4.53,4.53,0,0,0,0,2.45.85.85,0,0,0,.55.57c.1,0,.21.05.31.08V16a1,1,0,0,0,2,0V13.86l.31-.07a.84.84,0,0,0,.57-.63,6.4,6.4,0,0,0,0-2.35A.87.87,0,0,0,7.23,10.13Zm5-4L12,6.1V6a1,1,0,0,0-2,0v.11l-.21,0a.83.83,0,0,0-.64.61,4.53,4.53,0,0,0,0,2.45.85.85,0,0,0,.55.57c.1,0,.21.05.31.08V16a1,1,0,0,0,2,0V9.86l.31-.07a.84.84,0,0,0,.57-.63,6.4,6.4,0,0,0,0-2.35A.87.87,0,0,0,12.23,6.13Zm5.66,6.68a.87.87,0,0,0-.66-.68l-.21,0V6a1,1,0,0,0-2,0v6.11l-.21,0a.83.83,0,0,0-.64.61,4.53,4.53,0,0,0,0,2.45.85.85,0,0,0,.55.57c.1,0,.21.05.31.08V16a1,1,0,0,0,2,0v-.14l.31-.07a.84.84,0,0,0,.57-.63A6.4,6.4,0,0,0,17.89,12.81Z" fill="#00aeef"/></g></g></symbol><symbol id="off" viewBox="0 0 22 22"><defs><linearGradient id="linear-gradient" x1="11" x2="11" y2="22" gradientUnits="userSpaceOnUse"><stop offset="0" stop-color="#00aeef"/><stop offset="0.19" stop-color="#00a7e8"/><stop offset="0.46" stop-color="#0194d3"/><stop offset="0.79" stop-color="#0175b2"/><stop offset="1" stop-color="#025e9a"/></linearGradient></defs><title>nav-wl-filters-off</title><g id="Layer_2" data-name="Layer 2"><g id="Layer_1-2" data-name="Layer 1"><path d="M21.65,5.92a6.35,6.35,0,0,0-1.82-3.86C18.89,1.11,15.92,0,11,0S3.11,1.11,2.17,2.06A6.35,6.35,0,0,0,.35,5.92,32.19,32.19,0,0,0,0,11a32.19,32.19,0,0,0,.35,5.08,6.35,6.35,0,0,0,1.82,3.86C3.11,20.89,6.08,22,11,22s7.89-1.11,8.83-2.06a6.35,6.35,0,0,0,1.82-3.86A32.19,32.19,0,0,0,22,11,32.19,32.19,0,0,0,21.65,5.92ZM2.09,11c0-3.86,1.25-6.18,2-6.92s3.06-2,6.92-2,6.18,1.25,6.92,2,2,3.06,2,6.92-1.25,6.18-2,6.92-3.06,2-6.92,2-6.18-1.25-6.92-2S2.09,14.86,2.09,11Zm5.14-.87L7,10.1V6A1,1,0,0,0,5,6v4.11l-.21,0a.83.83,0,0,0-.64.61,4.53,4.53,0,0,0,0,2.45.85.85,0,0,0,.55.57c.1,0,.21.05.31.08V16a1,1,0,0,0,2,0V13.86l.31-.07a.84.84,0,0,0,.57-.63,6.4,6.4,0,0,0,0-2.35A.87.87,0,0,0,7.23,10.13Zm5-4L12,6.1V6a1,1,0,0,0-2,0v.11l-.21,0a.83.83,0,0,0-.64.61,4.53,4.53,0,0,0,0,2.45.85.85,0,0,0,.55.57c.1,0,.21.05.31.08V16a1,1,0,0,0,2,0V9.86l.31-.07a.84.84,0,0,0,.57-.63,6.4,6.4,0,0,0,0-2.35A.87.87,0,0,0,12.23,6.13Zm5.66,6.68a.87.87,0,0,0-.66-.68l-.21,0V6a1,1,0,0,0-2,0v6.11l-.21,0a.83.83,0,0,0-.64.61,4.53,4.53,0,0,0,0,2.45.85.85,0,0,0,.55.57c.1,0,.21.05.31.08V16a1,1,0,0,0,2,0v-.14l.31-.07a.84.84,0,0,0,.57-.63A6.4,6.4,0,0,0,17.89,12.81Z" fill="url(#linear-gradient)"/></g></g></symbol></svg>