<svg xmlns="http://www.w3.org/2000/svg" viewBox="0 0 23 23"><title>nav-draw-on</title><g id="Layer_2" data-name="Layer 2"><g id="Layer_1-2" data-name="Layer 1"><path d="M22.65,6.92a6.35,6.35,0,0,0-1.82-3.86C19.89,2.11,16.92,1,12,1S4.11,2.11,3.17,3.06A6.35,6.35,0,0,0,1.35,6.92,32.19,32.19,0,0,0,1,12a32.19,32.19,0,0,0,.35,5.08,6.35,6.35,0,0,0,1.82,3.86C4.11,21.89,7.08,23,12,23s7.89-1.11,8.83-2.06a6.35,6.35,0,0,0,1.82-3.86A32.19,32.19,0,0,0,23,12,32.19,32.19,0,0,0,22.65,6.92ZM3.09,12c0-3.86,1.25-6.18,2-6.92s3.06-2,6.92-2,6.18,1.25,6.92,2,2,3.06,2,6.92-1.25,6.18-2,6.92-3.06,2-6.92,2-6.18-1.25-6.92-2S3.09,15.86,3.09,12Zm11.1-6.19-8,8s-.87,3.13,0,4,4,0,4,0l8-8C18.19,5.87,14.19,5.81,14.19,5.81Zm-5,10-1-1,5-5,1,1Zm7-6-2-2h2Z" fill="#00aeef"/><path d="M4,0A4,4,0,1,1,0,4,4,4,0,0,1,4,0Z" fill="#8dc63f" fill-rule="evenodd"/></g></g></svg>