<svg xmlns="http://www.w3.org/2000/svg" xmlns:xlink="http://www.w3.org/1999/xlink" viewBox="0 0 20.19 20"><defs><linearGradient id="linear-gradient" x1="-29.81" y1="4" x2="-29.81" y2="20" gradientTransform="translate(42)" gradientUnits="userSpaceOnUse"><stop offset="0" stop-color="#00aeef"/><stop offset="0.19" stop-color="#00a7e8"/><stop offset="0.46" stop-color="#0194d3"/><stop offset="0.79" stop-color="#0175b2"/><stop offset="1" stop-color="#025e9a"/></linearGradient></defs><title>nav-advanced-roi-window-off</title><g id="Layer_2" data-name="Layer 2"><g id="Layer_1-2" data-name="Layer 1"><path d="M4.19,15h3V9h-3Zm5,0h6V9h-6Zm0,5h6V17h-6Zm0-16V7h6V4h-6Zm8,5v6h3V9Zm-12-2h2V5h-1C5.37,5,5.19,7,5.19,7Zm13-2h-1V7h2S19,5,18.19,5Zm-1,14h1c.75,0,1-2,1-2h-2Zm-11,0h1V17h-2S5.46,19,6.19,19Z" fill="url(#linear-gradient)"/><circle cx="4" cy="4" r="3" fill="#3b4850"/><path d="M4,2A2,2,0,1,1,2,4,2,2,0,0,1,4,2M4,0A4,4,0,1,0,8,4,4,4,0,0,0,4,0Z" fill="#a0a09f"/></g></g><defs><linearGradient id="linear-gradient" x1="-29.81" y1="4" x2="-29.81" y2="20" gradientTransform="translate(42)" gradientUnits="userSpaceOnUse"><stop offset="0" stop-color="#00aeef"/><stop offset="0.19" stop-color="#00a7e8"/><stop offset="0.46" stop-color="#0194d3"/><stop offset="0.79" stop-color="#0175b2"/><stop offset="1" stop-color="#025e9a"/></linearGradient></defs><title>nav-advanced-roi-window-off</title><g id="Layer_2" data-name="Layer 2"><g id="Layer_1-2" data-name="Layer 1"><path d="M4.19,15h3V9h-3Zm5,0h6V9h-6Zm0,5h6V17h-6Zm0-16V7h6V4h-6Zm8,5v6h3V9Zm-12-2h2V5h-1C5.37,5,5.19,7,5.19,7Zm13-2h-1V7h2S19,5,18.19,5Zm-1,14h1c.75,0,1-2,1-2h-2Zm-11,0h1V17h-2S5.46,19,6.19,19Z" fill="url(#linear-gradient)"/><circle cx="4" cy="4" r="3" fill="#3b4850"/><path d="M4,2A2,2,0,1,1,2,4,2,2,0,0,1,4,2M4,0A4,4,0,1,0,8,4,4,4,0,0,0,4,0Z" fill="#a0a09f"/></g></g></svg>