<svg xmlns="http://www.w3.org/2000/svg" viewBox="0 0 21.95 22.01"><symbol id="on-over" viewBox="0 0 21.95 22.01"><title>nav-export-over-on</title><g id="Layer_2" data-name="Layer 2"><g id="Layer_1-2" data-name="Layer 1"><path d="M12.08,7.86l4.27-5.05H13.11a1.41,1.41,0,1,1,0-2.81h7.42a1.27,1.27,0,0,1,.28,0l.11,0,.16.05.12.07a.67.67,0,0,1,.12.06,1.45,1.45,0,0,1,.39.39l.06.11s.05.08.07.13a.83.83,0,0,1,0,.15s0,.07,0,.11a2.46,2.46,0,0,1,0,.28V8.83a1.4,1.4,0,0,1-1.4,1.4,1.41,1.41,0,0,1-1.41-1.4V5.59L14.07,9.85a1.42,1.42,0,0,1-2,0A1.41,1.41,0,0,1,12.08,7.86ZM22,13a25.68,25.68,0,0,1-.3,3.1A6.41,6.41,0,0,1,19.83,20C18.89,20.9,15.92,22,11,22S3.11,20.9,2.17,20A6.41,6.41,0,0,1,.35,16.09,32.19,32.19,0,0,1,0,11,32.19,32.19,0,0,1,.35,5.93,6.35,6.35,0,0,1,2.17,2.07C3,1.26,5.26.33,9,.08V2.22A8.83,8.83,0,0,0,4.08,4.09a5,5,0,0,0-.76,1.1L11,5a5.81,5.81,0,0,0-1,3c0,4,3,4,3,4v7.63h.92a8.11,8.11,0,0,0,4-1.72A8.84,8.84,0,0,0,19.8,13ZM10,20c.16-.12,1-.74,1-1,0-.59-1-1-1-1H4l0,0,0,.06C4.9,19.13,6.75,19.86,10,20Zm1-4c0-.6-1-1-1-1H4s-1,.4-1,1,1,1,1,1h6S11,16.6,11,16ZM4,12s-1,.4-1,1,1,1,1,1h6s1-.41,1-1-1-1-1-1Z" fill="#00aeef"/></g></g></symbol><symbol id="off" viewBox="0 0 21.95 22.01"><defs><linearGradient id="linear-gradient" x1="10.98" x2="10.98" y2="22.01" gradientUnits="userSpaceOnUse"><stop offset="0" stop-color="#00aeef"/><stop offset="0.19" stop-color="#00a7e8"/><stop offset="0.46" stop-color="#0194d3"/><stop offset="0.79" stop-color="#0175b2"/><stop offset="1" stop-color="#025e9a"/></linearGradient></defs><title>nav-export-off</title><g id="Layer_2" data-name="Layer 2"><g id="Layer_1-2" data-name="Layer 1"><path d="M12.08,7.86l4.27-5.05H13.11a1.41,1.41,0,1,1,0-2.81h7.42a1.27,1.27,0,0,1,.28,0l.11,0,.16.05.12.07a.67.67,0,0,1,.12.06,1.45,1.45,0,0,1,.39.39l.06.11s.05.08.07.13a.83.83,0,0,1,0,.15s0,.07,0,.11a2.46,2.46,0,0,1,0,.28V8.83a1.4,1.4,0,0,1-1.4,1.4,1.41,1.41,0,0,1-1.41-1.4V5.59L14.07,9.85a1.42,1.42,0,0,1-2,0A1.41,1.41,0,0,1,12.08,7.86ZM22,13a25.68,25.68,0,0,1-.3,3.1A6.41,6.41,0,0,1,19.83,20C18.89,20.9,15.92,22,11,22S3.11,20.9,2.17,20A6.41,6.41,0,0,1,.35,16.09,32.19,32.19,0,0,1,0,11,32.19,32.19,0,0,1,.35,5.93,6.35,6.35,0,0,1,2.17,2.07C3,1.26,5.26.33,9,.08V2.22A8.83,8.83,0,0,0,4.08,4.09a5,5,0,0,0-.76,1.1L11,5a5.81,5.81,0,0,0-1,3c0,4,3,4,3,4v7.63h.92a8.11,8.11,0,0,0,4-1.72A8.84,8.84,0,0,0,19.8,13ZM10,20c.16-.12,1-.74,1-1,0-.59-1-1-1-1H4l0,0,0,.06C4.9,19.13,6.75,19.86,10,20Zm1-4c0-.6-1-1-1-1H4s-1,.4-1,1,1,1,1,1h6S11,16.6,11,16ZM4,12s-1,.4-1,1,1,1,1,1h6s1-.41,1-1-1-1-1-1Z" fill="url(#linear-gradient)"/></g></g></symbol></svg>