<svg xmlns="http://www.w3.org/2000/svg" xmlns:xlink="http://www.w3.org/1999/xlink" viewBox="0 0 18 17"><defs><linearGradient id="linear-gradient" x1="45" x2="45" y2="17" gradientTransform="translate(-36)" gradientUnits="userSpaceOnUse"><stop offset="0" stop-color="#00aeef"/><stop offset="0.19" stop-color="#00a7e8"/><stop offset="0.46" stop-color="#0194d3"/><stop offset="0.79" stop-color="#0175b2"/><stop offset="1" stop-color="#025e9a"/></linearGradient></defs><title>nav-stackscroll-off</title><g id="Layer_2" data-name="Layer 2"><g id="Layer_1-2" data-name="Layer 1"><path d="M14.73,0H3.27C2.48,0,0,1.18,0,1.64v.81C0,2.91.55,3,1,3H17c.45,0,1-.09,1-.55V1.64C18,1.18,15.18,0,14.73,0ZM1,10H17a1,1,0,0,0,1-1V8a1,1,0,0,0-1-1H1A1,1,0,0,0,0,8V9A1,1,0,0,0,1,10Zm16,4H1c-.45,0-1,.09-1,.55v.81C0,15.82,1.57,17,3.27,17H14.73c.45,0,3.27-1.18,3.27-1.64v-.81C18,14.09,17.45,14,17,14Z" fill="url(#linear-gradient)"/></g></g></svg>