<svg xmlns="http://www.w3.org/2000/svg" viewBox="0 0 23 23"><symbol id="on" viewBox="0 0 23 23"><title>nav-length-on</title><g id="Layer_2" data-name="Layer 2"><g id="Layer_1-2" data-name="Layer 1"><path d="M22.65,6.92a6.35,6.35,0,0,0-1.82-3.86C19.89,2.11,16.92,1,12,1S4.11,2.11,3.17,3.06A6.35,6.35,0,0,0,1.35,6.92,32.19,32.19,0,0,0,1,12a32.19,32.19,0,0,0,.35,5.08,6.35,6.35,0,0,0,1.82,3.86C4.11,21.89,7.08,23,12,23s7.89-1.11,8.83-2.06a6.35,6.35,0,0,0,1.82-3.86A32.19,32.19,0,0,0,23,12,32.19,32.19,0,0,0,22.65,6.92ZM3.09,12c0-3.86,1.25-6.18,2-6.92s3.06-2,6.92-2,6.18,1.25,6.92,2,2,3.06,2,6.92-1.25,6.18-2,6.92-3.06,2-6.92,2-6.18-1.25-6.92-2S3.09,15.86,3.09,12ZM18,11c0-.77-1-1-1-1a38,38,0,0,1,0,4c0,.48,0,1-1,1s-1-.51-1-1c-.13-1.48,0-4,0-4H13a30.57,30.57,0,0,1,0,3.73c0,.48,0,1.27-1,1.27s-1-.52-1-1a37.81,37.81,0,0,1,0-4H9a32.85,32.85,0,0,1,0,4c0,.48,0,1-1,1s-1-.52-1-1a38.19,38.19,0,0,1,0-4s-1,.22-1,1-.32,5.38.33,5.95c1.27,1.21,10.63,1.41,11.52.13C18.16,16.64,18,11.77,18,11ZM17,6H7C6.08,6,6,8,6,8H18S17.82,6,17,6Z" fill="#00aeef"/><path d="M4,0A4,4,0,1,1,0,4,4,4,0,0,1,4,0Z" fill="#8dc63f" fill-rule="evenodd"/></g></g></symbol><symbol id="off" viewBox="0 0 23 23"><defs><linearGradient id="linear-gradient" x1="12" y1="1" x2="12" y2="23" gradientUnits="userSpaceOnUse"><stop offset="0" stop-color="#00aeef"/><stop offset="0.19" stop-color="#00a7e8"/><stop offset="0.46" stop-color="#0194d3"/><stop offset="0.79" stop-color="#0175b2"/><stop offset="1" stop-color="#025e9a"/></linearGradient></defs><title>nav-length-off</title><g id="Layer_2" data-name="Layer 2"><g id="Layer_1-2" data-name="Layer 1"><path d="M22.65,6.92a6.35,6.35,0,0,0-1.82-3.86C19.89,2.11,16.92,1,12,1S4.11,2.11,3.17,3.06A6.35,6.35,0,0,0,1.35,6.92,32.19,32.19,0,0,0,1,12a32.19,32.19,0,0,0,.35,5.08,6.35,6.35,0,0,0,1.82,3.86C4.11,21.89,7.08,23,12,23s7.89-1.11,8.83-2.06a6.35,6.35,0,0,0,1.82-3.86A32.19,32.19,0,0,0,23,12,32.19,32.19,0,0,0,22.65,6.92ZM3.09,12c0-3.86,1.25-6.18,2-6.92s3.06-2,6.92-2,6.18,1.25,6.92,2,2,3.06,2,6.92-1.25,6.18-2,6.92-3.06,2-6.92,2-6.18-1.25-6.92-2S3.09,15.86,3.09,12ZM18,11c0-.77-1-1-1-1a38,38,0,0,1,0,4c0,.48,0,1-1,1s-1-.51-1-1c-.13-1.48,0-4,0-4H13a30.57,30.57,0,0,1,0,3.73c0,.48,0,1.27-1,1.27s-1-.52-1-1a37.81,37.81,0,0,1,0-4H9a32.85,32.85,0,0,1,0,4c0,.48,0,1-1,1s-1-.52-1-1a38.19,38.19,0,0,1,0-4s-1,.22-1,1-.32,5.38.33,5.95c1.27,1.21,10.63,1.41,11.52.13C18.16,16.64,18,11.77,18,11ZM17,6H7C6.08,6,6,8,6,8H18S17.82,6,17,6Z" fill="url(#linear-gradient)"/><circle cx="4" cy="4" r="3" fill="#3b4850"/><path d="M4,2A2,2,0,1,1,2,4,2,2,0,0,1,4,2M4,0A4,4,0,1,0,8,4,4,4,0,0,0,4,0Z" fill="#a0a09f"/></g></g></symbol><symbol id="over" viewBox="0 0 23 23"><title>nav-length-over</title><g id="Layer_2" data-name="Layer 2"><g id="Layer_1-2" data-name="Layer 1"><path d="M22.65,6.92a6.35,6.35,0,0,0-1.82-3.86C19.89,2.11,16.92,1,12,1S4.11,2.11,3.17,3.06A6.35,6.35,0,0,0,1.35,6.92,32.19,32.19,0,0,0,1,12a32.19,32.19,0,0,0,.35,5.08,6.35,6.35,0,0,0,1.82,3.86C4.11,21.89,7.08,23,12,23s7.89-1.11,8.83-2.06a6.35,6.35,0,0,0,1.82-3.86A32.19,32.19,0,0,0,23,12,32.19,32.19,0,0,0,22.65,6.92ZM3.09,12c0-3.86,1.25-6.18,2-6.92s3.06-2,6.92-2,6.18,1.25,6.92,2,2,3.06,2,6.92-1.25,6.18-2,6.92-3.06,2-6.92,2-6.18-1.25-6.92-2S3.09,15.86,3.09,12ZM18,11c0-.77-1-1-1-1a38,38,0,0,1,0,4c0,.48,0,1-1,1s-1-.51-1-1c-.13-1.48,0-4,0-4H13a30.57,30.57,0,0,1,0,3.73c0,.48,0,1.27-1,1.27s-1-.52-1-1a37.81,37.81,0,0,1,0-4H9a32.85,32.85,0,0,1,0,4c0,.48,0,1-1,1s-1-.52-1-1a38.19,38.19,0,0,1,0-4s-1,.22-1,1-.32,5.38.33,5.95c1.27,1.21,10.63,1.41,11.52.13C18.16,16.64,18,11.77,18,11ZM17,6H7C6.08,6,6,8,6,8H18S17.82,6,17,6Z" fill="#00aeef"/><circle cx="4" cy="4" r="3" fill="#3b4850"/><path d="M4,2A2,2,0,1,1,2,4,2,2,0,0,1,4,2M4,0A4,4,0,1,0,8,4,4,4,0,0,0,4,0Z" fill="#a0a09f"/></g></g></symbol></svg>