<svg xmlns="http://www.w3.org/2000/svg" xmlns:xlink="http://www.w3.org/1999/xlink" viewBox="0 0 20.19 20"><defs><linearGradient id="linear-gradient" x1="11.19" y1="2" x2="11.19" y2="20" gradientUnits="userSpaceOnUse"><stop offset="0" stop-color="#00aeef"/><stop offset="0.19" stop-color="#00a7e8"/><stop offset="0.46" stop-color="#0194d3"/><stop offset="0.79" stop-color="#0175b2"/><stop offset="1" stop-color="#025e9a"/></linearGradient></defs><title>nav-advanced-rectangle-off</title><g id="Layer_2" data-name="Layer 2"><g id="Layer_1-2" data-name="Layer 1"><path d="M15.19,2h-8a5,5,0,0,0-5,5v8a5,5,0,0,0,5,5h8a5,5,0,0,0,5-5V7a5,5,0,0,0-5-5Zm0,2a3,3,0,0,1,3,3v8a3,3,0,0,1-3,3h-8a3,3,0,0,1-3-3V7a3,3,0,0,1,3-3h8" fill="url(#linear-gradient)"/><circle cx="4" cy="4" r="3" fill="#3b4850"/><path d="M4,2A2,2,0,1,1,2,4,2,2,0,0,1,4,2M4,0A4,4,0,1,0,8,4,4,4,0,0,0,4,0Z" fill="#a0a09f"/></g></g></svg>