<svg xmlns="http://www.w3.org/2000/svg" width="23" height="22" viewBox="0 0 23 22">
  <metadata><?xpacket begin="﻿" id="W5M0MpCehiHzreSzNTczkc9d"?>
<x:xmpmeta xmlns:x="adobe:ns:meta/" x:xmptk="Adobe XMP Core 5.6-c138 79.159824, 2016/09/14-01:09:01        ">
   <rdf:RDF xmlns:rdf="http://www.w3.org/1999/02/22-rdf-syntax-ns#">
      <rdf:Description rdf:about=""/>
   </rdf:RDF>
</x:xmpmeta>
                                                                                                    
                                                                                                    
                                                                                                    
                                                                                                    
                                                                                                    
                                                                                                    
                                                                                                    
                                                                                                    
                                                                                                    
                                                                                                    
                                                                                                    
                                                                                                    
                                                                                                    
                                                                                                    
                                                                                                    
                                                                                                    
                                                                                                    
                                                                                                    
                                                                                                    
                                                                                                    
                           
<?xpacket end="w"?></metadata>
<defs>
    <style>
      .cls-1 {
        fill: #00aeef;
        fill-rule: evenodd;
      }
    </style>
  </defs>
  <path id="Series_Toggle" data-name="Series Toggle" class="cls-1" d="M260,139a50.287,50.287,0,0,1-9,0,0.992,0.992,0,0,1-1-1,0.916,0.916,0,0,1,1-1,45.112,45.112,0,0,1,9,0A1,1,0,0,1,260,139Zm-2.94,10c4.87,0,7.537-.616,8.744-2.064a6,6,0,0,0,1.8-3.859,37.388,37.388,0,0,0,0-10.164,6,6,0,0,0-1.8-3.859C264.6,127.607,261.93,127,257.06,127H244.93l0.07,2h12c3.853,0,6.023.776,6.978,1.921a4.748,4.748,0,0,1,1.424,3.053A23.208,23.208,0,0,1,266,138a23.081,23.081,0,0,1-.6,4.016,4.748,4.748,0,0,1-1.424,3.053C263.023,146.215,260.854,147,257,147H245l-0.07,2h12.13Zm2.94-6a50.287,50.287,0,0,1-9,0,0.992,0.992,0,0,1-1-1,0.916,0.916,0,0,1,1-1,45.112,45.112,0,0,1,9,0A1,1,0,0,1,260,143Zm0-8a50.287,50.287,0,0,1-9,0,0.992,0.992,0,0,1-1-1,0.916,0.916,0,0,1,1-1,45.112,45.112,0,0,1,9,0A1,1,0,0,1,260,135Z" transform="translate(-244.938 -127)"/>
</svg>
